<svg width="128" height="128" viewBox="0 0 128 128" fill="none" xmlns="http://www.w3.org/2000/svg">
<mask id="mask0_107_615" style="mask-type:alpha" maskUnits="userSpaceOnUse" x="0" y="0" width="128" height="128">
<rect width="128" height="128" fill="black"/>
</mask>
<g mask="url(#mask0_107_615)">
<rect width="128" height="128" fill="#E2DFDF"/>
<mask id="mask1_107_615" style="mask-type:alpha" maskUnits="userSpaceOnUse" x="0" y="0" width="128" height="128">
<rect width="128" height="128" fill="url(#paint0_radial_107_615)"/>
</mask>
<g mask="url(#mask1_107_615)">
<path d="M7.625 8.75H120.625M7.625 20H120.625M7.625 31.25H120.625M7.625 53.75H120.625M7.625 42.5H120.625M7.625 65H120.625M7.625 76.25H120.625M7.625 87.5H120.625M7.625 110H120.625M7.625 98.75H107.125M7.625 121.25H107.125" stroke="#3F3D3D" stroke-width="2" stroke-linecap="round"/>
</g>
<path d="M98.5675 50.7422C97.3197 50.8754 95.0403 51.3249 93.3266 51.7412C91.1471 52.2906 86.7547 54.2554 84.7416 55.5707C83.5437 56.3699 83.2608 56.6197 81.414 58.4512C77.8702 61.981 77.2213 63.0133 73.5444 70.7389C72.9787 71.9211 72.5295 72.9367 72.5295 72.9867C72.5295 73.0866 72.1635 73.8525 70.6827 76.9327C70.3167 77.6653 70.0339 78.3646 70.0339 78.4812C70.0339 78.5977 69.9673 78.8142 69.8675 78.9807C69.6179 79.4469 68.2037 82.4939 68.2037 82.5771C68.2037 82.6271 67.8044 83.5095 67.3219 84.5418C66.8228 85.5741 66.2238 86.9061 65.9576 87.5055C65.7081 88.1049 65.2921 89.0207 65.0259 89.5535C64.7597 90.0696 64.5434 90.6024 64.5434 90.7356C64.5434 90.8522 64.4436 91.0353 64.3271 91.1352C64.2107 91.2351 64.011 91.7013 63.8779 92.1675C63.7614 92.6171 63.5951 93 63.5119 93C63.4453 93 63.3788 93.0999 63.3788 93.2331C63.3788 93.3663 62.9795 94.2821 62.497 95.2811C62.0311 96.2635 61.3822 97.6621 61.0661 98.3614C60.75 99.0773 60.4006 99.6601 60.3008 99.6601C60.201 99.6601 60.0013 99.4103 59.8516 99.1106C59.4856 98.4113 58.0547 95.3144 58.0547 95.2311C58.0547 95.1645 57.7719 94.5318 56.9566 92.7503C56.757 92.2841 56.3909 91.5015 56.1747 91.002C55.9417 90.5025 55.4426 89.4036 55.0599 88.5878C54.6773 87.7553 54.2613 86.8229 54.1116 86.5065C53.9785 86.1902 53.5126 85.1745 53.0634 84.2588C51.749 81.4949 51.566 81.0786 51.566 80.962C51.566 80.8455 51.0669 79.7299 49.9189 77.2657C49.453 76.2834 49.087 75.4842 48.2884 73.686C47.8225 72.6537 47.5563 72.0876 46.5913 69.973C46.2087 69.1572 45.9092 68.4579 45.9092 68.4246C45.9092 68.308 45.2437 66.8594 44.8277 66.0269C44.6114 65.6107 44.2454 64.7948 43.9959 64.1954C43.7463 63.596 43.0641 62.0975 42.4652 60.8654C41.8829 59.6333 41.3338 58.4678 41.2506 58.2847C41.0177 57.7186 40.3189 56.1701 39.7699 55.0046C39.487 54.3886 39.2541 53.8058 39.2541 53.7059C39.2541 53.606 38.9879 52.9733 38.6718 52.2906L38.0895 51.0419H24.1138C16.0778 51.0419 10.1381 51.1085 10.1381 51.1917C10.1381 51.275 10.6373 51.4748 11.2529 51.6246C13.4324 52.2074 15.379 53.323 17.2591 55.1045C18.8396 56.603 20.0376 58.984 20.8195 62.1974C20.9859 62.93 21.0358 66.6263 21.0025 81.4282C20.9693 92.5172 20.8861 100.459 20.7863 101.575C20.5533 103.922 20.3038 105.771 20.1207 106.403C20.0376 106.67 19.8379 107.386 19.6882 107.985C18.823 111.398 17.5918 113.913 15.562 116.46C14.7301 117.492 12.9499 119.007 11.7853 119.673C11.569 119.79 11.2695 119.973 11.1364 120.073C10.8702 120.273 8.19151 121.222 7.42618 121.388C5.74577 121.738 7.99186 121.805 22.5332 121.805C37.1245 121.805 39.2874 121.738 37.6402 121.372C35.9931 121.022 33.9467 120.156 32.6323 119.257C31.5342 118.508 29.7207 116.76 28.8389 115.578C28.1068 114.628 26.3765 111.265 25.9439 109.983C25.6112 108.951 25.2452 107.585 25.0954 106.82C25.0289 106.403 24.8791 105.687 24.7959 105.238C24.3966 103.273 24.2635 102.058 24.1138 99.1606C23.9308 95.5808 23.9141 62.0642 24.0972 61.9643C24.2303 61.8811 24.5131 62.3972 25.1952 64.0289C25.4614 64.6283 25.9107 65.6273 26.1935 66.2767C26.493 66.9094 26.9422 67.9251 27.1918 68.5245C27.9904 70.4226 28.0736 70.5891 28.4063 71.355C28.8555 72.3706 29.754 74.3187 30.5193 75.9337C32.4493 80.0796 32.832 80.9121 34.5955 84.9248C35.078 86.0237 35.8767 87.7719 36.3758 88.8042C36.8583 89.8365 37.2576 90.719 37.2576 90.7523C37.2576 90.8022 37.6569 91.6847 38.1394 92.717C39.2874 95.1146 39.487 95.5475 39.9196 96.6631C40.1193 97.1626 40.4853 98.0284 40.7515 98.5778C41.0011 99.1273 41.3837 99.9431 41.5834 100.409C42.0825 101.542 42.6815 102.857 43.3303 104.239C43.6132 104.872 43.9792 105.671 44.129 105.987C44.2621 106.303 44.7113 107.286 45.1272 108.168C45.5432 109.051 45.9258 109.933 45.9924 110.15C46.0589 110.366 46.4416 111.249 46.8575 112.131C47.2735 113.013 47.7227 113.996 47.8558 114.312C48.4381 115.611 49.1369 117.143 49.819 118.558C50.2017 119.374 50.6842 120.456 50.9005 120.939L51.2998 121.821L53.6457 121.721L54.2447 120.473C54.5774 119.79 54.9767 118.957 55.1098 118.641C55.2596 118.325 55.792 117.126 56.3077 115.977C56.8235 114.828 57.3393 113.663 57.4558 113.396C57.5889 113.113 57.9882 112.181 58.3875 111.315C58.7701 110.449 59.1861 109.5 59.3025 109.234C59.6353 108.485 60.3673 106.836 60.7999 105.904C61.0162 105.438 61.3989 104.622 61.6318 104.072C62.3805 102.391 62.7299 101.625 63.3122 100.409C63.6117 99.76 63.9777 98.9108 64.1441 98.4946C64.5933 97.2791 64.6432 97.1626 65.6082 95.1312C66.124 94.049 66.5399 93.1332 66.5399 93.0833C66.5399 93.05 66.7729 92.5338 67.0391 91.9677C67.3219 91.4016 67.5382 90.8855 67.5382 90.8189C67.5382 90.7023 69.4016 86.6564 69.7011 86.1402C69.8009 85.9737 69.8675 85.7573 69.8675 85.6574C69.8675 85.4576 71.8307 81.0952 73.378 77.8984C73.9271 76.7662 74.3597 75.7839 74.3597 75.7006C74.3597 75.6174 74.4761 75.3343 74.6092 75.0679C74.9586 74.4019 75.7739 72.5371 76.0234 71.8545C77.0217 69.0906 78.8019 66.0769 79.2179 66.4931C79.3011 66.5764 79.3343 76.4832 79.3177 89.7699C79.2678 111.482 79.2511 112.947 78.9683 113.813C78.2695 115.96 77.7371 116.91 76.5226 118.142C74.9919 119.707 73.8772 120.273 70.0838 121.405C69.9673 121.438 69.8675 121.538 69.8675 121.638C69.8675 121.838 117.718 121.871 117.851 121.671C117.884 121.605 117.967 121.089 118.034 120.556C118.084 120.006 118.283 118.508 118.483 117.226C118.666 115.944 118.882 114.445 118.949 113.896C119.032 113.346 119.248 111.915 119.448 110.732C119.647 109.534 119.88 108.118 119.947 107.569C120.03 107.019 120.246 105.637 120.429 104.489C121.162 100.076 121.311 98.9608 121.128 98.7776C120.945 98.5945 120.463 99.0607 120.446 99.427C120.446 99.5102 120.263 99.9598 120.047 100.426C119.83 100.876 119.415 101.791 119.132 102.457C118.466 103.972 117.751 105.304 116.919 106.52C116.57 107.036 116.287 107.519 116.287 107.569C116.287 107.902 114.024 110.732 112.493 112.347C110.147 114.795 106.104 117.809 105.156 117.809C104.99 117.809 104.807 117.875 104.707 117.958C104.274 118.358 102.261 118.808 100.864 118.808C98.4178 118.808 97.1533 117.942 96.4712 115.811C96.1384 114.745 96.1218 67.7919 96.4545 65.8604C96.937 63.1298 97.3031 61.6979 97.9353 60.1994C99.3994 56.7029 100.847 54.9713 103.209 53.8058C104.324 53.2564 106.387 52.9566 107.103 53.2231L107.552 53.4062L107.136 53.7392C105.306 55.2044 103.941 57.0026 103.476 58.5344C103.193 59.4835 103.06 63.1798 103.293 63.4129C103.392 63.5128 103.476 63.7126 103.476 63.8624C103.476 64.0123 103.709 64.6283 104.008 65.2111C104.69 66.5764 106.703 68.6244 107.984 69.2238C113.142 71.6713 118.849 69.2071 120.596 63.8125C121.611 60.649 120.529 56.8694 117.917 54.4219C115.871 52.5237 112.643 51.2084 108.783 50.7255C107.136 50.5091 100.514 50.5257 98.5675 50.7422Z" fill="url(#paint1_linear_107_615)"/>
</g>
<defs>
<radialGradient id="paint0_radial_107_615" cx="0" cy="0" r="1" gradientUnits="userSpaceOnUse" gradientTransform="translate(64 12.75) rotate(90) scale(78.4375 182.13)">
<stop stop-color="white"/>
<stop offset="1" stop-opacity="0"/>
</radialGradient>
<linearGradient id="paint1_linear_107_615" x1="64.0742" y1="50.5713" x2="61.6878" y2="110.813" gradientUnits="userSpaceOnUse">
<stop stop-color="#463F3F"/>
<stop offset="1" stop-color="#807B7B"/>
</linearGradient>
</defs>
</svg>
