<svg width="60" height="60" viewBox="0 0 60 60" fill="none" xmlns="http://www.w3.org/2000/svg">
<g filter="url(#filter0_i_304_62)">
<rect width="60" height="60" rx="30" fill="url(#paint0_linear_304_62)"/>
</g>
<g filter="url(#filter1_i_304_62)">
<path d="M44.4917 15.072C43.9675 15.128 43.0098 15.3173 42.2899 15.4926C41.3742 15.7239 39.5288 16.5512 38.683 17.105C38.1797 17.4415 38.0609 17.5467 37.285 18.3178C35.7961 19.8041 35.5235 20.2387 33.9787 23.4916C33.7411 23.9894 33.5523 24.417 33.5523 24.4381C33.5523 24.4801 33.3986 24.8026 32.7764 26.0996C32.6227 26.408 32.5038 26.7025 32.5038 26.7515C32.5038 26.8006 32.4759 26.8917 32.4339 26.9619C32.3291 27.1581 31.7349 28.4411 31.7349 28.4761C31.7349 28.4972 31.5672 28.8687 31.3645 29.3034C31.1548 29.738 30.9031 30.2989 30.7913 30.5513C30.6864 30.8036 30.5117 31.1892 30.3998 31.4136C30.288 31.6309 30.1971 31.8552 30.1971 31.9113C30.1971 31.9604 30.1552 32.0375 30.1063 32.0796C30.0573 32.1216 29.9734 32.3179 29.9175 32.5142C29.8686 32.7035 29.7987 32.8647 29.7637 32.8647C29.7358 32.8647 29.7078 32.9068 29.7078 32.9629C29.7078 33.019 29.5401 33.4046 29.3374 33.8252C29.1416 34.2388 28.869 34.8277 28.7362 35.1221C28.6034 35.4236 28.4566 35.669 28.4147 35.669C28.3727 35.669 28.2888 35.5638 28.2259 35.4376C28.0722 35.1432 27.471 33.8392 27.471 33.8042C27.471 33.7761 27.3522 33.5097 27.0097 32.7596C26.9258 32.5633 26.772 32.2338 26.6811 32.0235C26.5833 31.8132 26.3736 31.3505 26.2128 31.0069C26.052 30.6564 25.8773 30.2638 25.8144 30.1306C25.7585 29.9974 25.5627 29.5698 25.374 29.1842C24.8218 28.0204 24.7449 27.8452 24.7449 27.7961C24.7449 27.747 24.5352 27.2773 24.0529 26.2398C23.8572 25.8261 23.7034 25.4896 23.3679 24.7325C23.1722 24.2978 23.0603 24.0595 22.6549 23.1691C22.4941 22.8256 22.3683 22.5312 22.3683 22.5172C22.3683 22.4681 22.0887 21.8582 21.914 21.5076C21.8231 21.3324 21.6693 20.9889 21.5645 20.7365C21.4596 20.4841 21.173 19.8532 20.9214 19.3344C20.6767 18.8156 20.446 18.3249 20.4111 18.2477C20.3132 18.0094 20.0197 17.3574 19.789 16.8667C19.6702 16.6073 19.5723 16.3619 19.5723 16.3198C19.5723 16.2778 19.4605 16.0114 19.3276 15.7239C19.1784 15.4032 18.8568 15.1981 18.5031 15.1981H13.2114C9.8352 15.1981 7.33976 15.2262 7.33976 15.2612C7.33976 15.2963 7.54946 15.3804 7.80809 15.4435C8.72378 15.6889 9.54162 16.1586 10.3315 16.9087C10.9955 17.5397 11.4988 18.5422 11.8274 19.8952C11.8973 20.2037 11.9182 21.76 11.9042 27.9924C11.8903 32.6614 11.8553 36.0055 11.8134 36.4752C11.7155 37.4637 11.6107 38.2418 11.5338 38.5082C11.4988 38.6204 11.4149 38.9219 11.352 39.1742C10.9886 40.6114 10.4713 41.67 9.61851 42.7426C9.26901 43.1773 8.52107 43.8152 8.03177 44.0956C7.9409 44.1447 7.81508 44.2218 7.75916 44.2639C7.64732 44.348 6.52193 44.7476 6.20039 44.8177C5.49439 44.9649 6.43805 44.993 12.5473 44.993C18.6776 44.993 19.5863 44.9649 18.8943 44.8107C18.2023 44.6635 17.3425 44.2989 16.7903 43.9204C16.3289 43.6049 15.567 42.8688 15.1965 42.371C14.889 41.9714 14.162 40.5553 13.9803 40.0155C13.8405 39.5808 13.6867 39.006 13.6238 38.6835C13.5958 38.5082 13.5329 38.2068 13.498 38.0175C13.3302 37.1902 13.2743 36.6785 13.2114 35.4586C13.1345 33.9514 13.1275 19.8391 13.2044 19.7971C13.2603 19.762 13.3791 19.9793 13.6657 20.6664C13.7776 20.9188 13.9663 21.3394 14.0851 21.6128C14.2109 21.8792 14.3997 22.3068 14.5045 22.5592C14.8401 23.3584 14.875 23.4285 15.0148 23.751C15.2035 24.1787 15.581 24.9989 15.9025 25.6789C16.7134 27.4245 16.8741 27.7751 17.6151 29.4646C17.8178 29.9273 18.1533 30.6634 18.363 31.0981C18.5657 31.5327 18.7335 31.9043 18.7335 31.9183C18.7335 31.9393 18.9013 32.3109 19.104 32.7456C19.5863 33.7551 19.6702 33.9374 19.8519 34.4071C19.9358 34.6174 20.0896 34.9819 20.2014 35.2133C20.3062 35.4446 20.467 35.7881 20.5509 35.9844C20.7606 36.4611 21.0122 37.015 21.2849 37.5969C21.4037 37.8633 21.5575 38.1998 21.6204 38.333C21.6763 38.4662 21.865 38.8798 22.0398 39.2513C22.2145 39.6229 22.3753 39.9945 22.4033 40.0856C22.4312 40.1767 22.592 40.5483 22.7667 40.9199C22.9415 41.2914 23.1302 41.705 23.1861 41.8382C23.4308 42.3851 23.7244 43.03 24.011 43.6259C24.1717 43.9695 24.3744 44.4251 24.4653 44.6284L24.6331 45L25.6187 44.9579L25.8703 44.4321C26.0101 44.1447 26.1779 43.7942 26.2338 43.661C26.2967 43.5278 26.5204 43.023 26.7371 42.5393C26.9538 42.0556 27.1704 41.5648 27.2194 41.4527C27.2753 41.3335 27.4431 40.9409 27.6108 40.5763C27.7716 40.2118 27.9463 39.8122 27.9953 39.7C28.1351 39.3845 28.4426 38.6905 28.6244 38.2979C28.7152 38.1016 28.876 37.7581 28.9739 37.5268C29.2884 36.8187 29.4352 36.4962 29.6799 35.9844C29.8057 35.711 29.9595 35.3535 30.0294 35.1782C30.2181 34.6664 30.2391 34.6174 30.6445 33.7621C30.8612 33.3064 31.0359 32.9208 31.0359 32.8998C31.0359 32.8858 31.1338 32.6684 31.2456 32.4301C31.3645 32.1917 31.4553 31.9744 31.4553 31.9464C31.4553 31.8973 32.2382 30.1937 32.364 29.9764C32.406 29.9063 32.4339 29.8151 32.4339 29.7731C32.4339 29.689 33.2588 27.8522 33.9088 26.5062C34.1395 26.0294 34.3212 25.6158 34.3212 25.5808C34.3212 25.5457 34.3702 25.4265 34.4261 25.3144C34.5729 25.034 34.9154 24.2488 35.0202 23.9613C35.4396 22.7976 36.1876 21.5287 36.3623 21.7039C36.3973 21.739 36.4113 25.9103 36.4043 31.5047C36.3833 40.6465 36.3763 41.2634 36.2575 41.6279C35.9639 42.5323 35.7402 42.9319 35.2299 43.4507C34.5869 44.1097 34.1185 44.348 32.5248 44.8247C32.4759 44.8388 32.4339 44.8808 32.4339 44.9229C32.4339 45.007 52.5372 45.021 52.5932 44.9369C52.6071 44.9089 52.6421 44.6915 52.67 44.4672C52.691 44.2359 52.7749 43.6049 52.8588 43.0651C52.9357 42.5253 53.0265 41.8943 53.0545 41.663C53.0894 41.4316 53.1803 40.8287 53.2642 40.331C53.3481 39.8262 53.4459 39.2303 53.4739 38.999C53.5088 38.7676 53.5997 38.1857 53.6766 37.702C53.9842 35.8442 54.0471 35.3745 53.9702 35.2974C53.8933 35.2203 53.6906 35.4166 53.6836 35.5708C53.6836 35.6059 53.6067 35.7951 53.5158 35.9914C53.425 36.1807 53.2502 36.5663 53.1314 36.8467C52.8518 37.4847 52.5512 38.0455 52.2017 38.5573C52.0549 38.7746 51.9361 38.9779 51.9361 38.999C51.9361 39.1392 50.9854 40.331 50.3424 41.011C49.3568 42.0415 47.6582 43.3105 47.2598 43.3105C47.1899 43.3105 47.113 43.3385 47.071 43.3736C46.8893 43.5418 46.0435 43.7311 45.4563 43.7311C44.4288 43.7311 43.8976 43.3665 43.611 42.4692C43.4712 42.0205 43.4642 22.2508 43.604 21.4375C43.8067 20.2878 43.9605 19.6849 44.2261 19.054C44.8412 17.5817 45.4494 16.8526 46.4419 16.3619C46.9103 16.1306 47.777 16.0044 48.0776 16.1165L48.2663 16.1936L48.0916 16.3339C47.3227 16.9508 46.7495 17.7079 46.5538 18.3529C46.4349 18.7525 46.379 20.3088 46.4769 20.407C46.5188 20.4491 46.5538 20.5332 46.5538 20.5963C46.5538 20.6594 46.6516 20.9188 46.7775 21.1641C47.064 21.739 47.9098 22.6013 48.4481 22.8537C50.615 23.8842 53.0126 22.8467 53.7465 20.5752C54.1729 19.2432 53.7185 17.6518 52.6211 16.6213C51.7613 15.8221 50.4053 15.2683 48.7836 15.0649C48.0916 14.9738 45.3096 14.9808 44.4917 15.072Z" fill="url(#paint1_linear_304_62)"/>
</g>
<defs>
<filter id="filter0_i_304_62" x="0" y="0" width="60" height="62" filterUnits="userSpaceOnUse" color-interpolation-filters="sRGB">
<feFlood flood-opacity="0" result="BackgroundImageFix"/>
<feBlend mode="normal" in="SourceGraphic" in2="BackgroundImageFix" result="shape"/>
<feColorMatrix in="SourceAlpha" type="matrix" values="0 0 0 0 0 0 0 0 0 0 0 0 0 0 0 0 0 0 127 0" result="hardAlpha"/>
<feOffset dy="2"/>
<feGaussianBlur stdDeviation="1"/>
<feComposite in2="hardAlpha" operator="arithmetic" k2="-1" k3="1"/>
<feColorMatrix type="matrix" values="0 0 0 0 0.107457 0 0 0 0 0.106622 0 0 0 0 0.106622 0 0 0 0.25 0"/>
<feBlend mode="normal" in2="shape" result="effect1_innerShadow_304_62"/>
</filter>
<filter id="filter1_i_304_62" x="6" y="15" width="48" height="32" filterUnits="userSpaceOnUse" color-interpolation-filters="sRGB">
<feFlood flood-opacity="0" result="BackgroundImageFix"/>
<feBlend mode="normal" in="SourceGraphic" in2="BackgroundImageFix" result="shape"/>
<feColorMatrix in="SourceAlpha" type="matrix" values="0 0 0 0 0 0 0 0 0 0 0 0 0 0 0 0 0 0 127 0" result="hardAlpha"/>
<feOffset dy="2"/>
<feGaussianBlur stdDeviation="1"/>
<feComposite in2="hardAlpha" operator="arithmetic" k2="-1" k3="1"/>
<feColorMatrix type="matrix" values="0 0 0 0 0 0 0 0 0 0 0 0 0 0 0 0 0 0 0.25 0"/>
<feBlend mode="normal" in2="shape" result="effect1_innerShadow_304_62"/>
</filter>
<linearGradient id="paint0_linear_304_62" x1="4.90661e-07" y1="1.23077" x2="15.2861" y2="63.6059" gradientUnits="userSpaceOnUse">
<stop offset="0.427926" stop-color="white"/>
<stop offset="1" stop-color="#C2C2C2"/>
</linearGradient>
<linearGradient id="paint1_linear_304_62" x1="30" y1="15" x2="28.993" y2="40.3646" gradientUnits="userSpaceOnUse">
<stop stop-color="#463F3F"/>
<stop offset="1" stop-color="#807B7B"/>
</linearGradient>
</defs>
</svg>
