<svg width="512" height="512" viewBox="0 0 512 512" fill="none" xmlns="http://www.w3.org/2000/svg">
<mask id="mask0_63_53" style="mask-type:alpha" maskUnits="userSpaceOnUse" x="0" y="0" width="512" height="512">
<rect width="512" height="512" fill="#D9D9D9"/>
</mask>
<g mask="url(#mask0_63_53)">
<path d="M31 32.3499H481V480.324H31V32.3499Z" fill="url(#paint0_linear_63_53)" fill-opacity="0.9"/>
<path d="M65.3344 68.8221H446.666L446 438.324L66 439.324L65.3344 68.8221Z" fill="url(#paint1_linear_63_53)"/>
<g filter="url(#filter0_ddddd_63_53)">
<path d="M66 69.3235L97.9523 69.6149H114.206L131 70.8235V439.324H66V69.3235Z" fill="url(#paint2_linear_63_53)" fill-opacity="0.8"/>
<path d="M97.9473 70.1145H114.185L130.5 71.2884V438.824H66.5V69.8274L97.9473 70.1145Z" stroke="white" stroke-opacity="0.5"/>
<path d="M66 69.3235L104.527 69.6149C104.527 69.6149 136.195 69.6149 143.5 73.5793C188.806 143.551 188.916 143.551 188.916 143.551L256.841 249.994L218 313.324L66 69.3235Z" fill="url(#paint3_linear_63_53)" fill-opacity="0.8"/>
<path d="M104.511 70.1321L104.515 70.1328L104.515 70.1322C104.516 70.1322 104.518 70.1329 104.519 70.1329C104.523 70.1329 104.529 70.1323 104.536 70.1323C104.551 70.1323 104.575 70.132 104.604 70.1321C104.664 70.1322 104.753 70.133 104.869 70.1335C105.102 70.1344 105.446 70.1363 105.886 70.1402C106.764 70.1479 108.028 70.163 109.568 70.194C112.647 70.2559 116.828 70.3798 121.236 70.6272C125.645 70.8746 130.276 71.2456 134.255 71.8007C138.181 72.3485 141.404 73.0705 143.173 73.9922C165.779 108.905 177.116 126.37 182.801 135.108C185.646 139.481 187.077 141.669 187.795 142.763C188.155 143.31 188.337 143.586 188.429 143.724C188.475 143.793 188.501 143.83 188.515 143.851C188.518 143.855 188.521 143.86 188.524 143.864L256.259 250.012L218.004 312.388L66.913 69.8479L104.511 70.1321Z" stroke="white" stroke-opacity="0.5"/>
<path d="M445.935 69.6149C445.935 69.6149 421.989 69.6149 406.852 69.6149C377.632 69.6149 368.5 73.5793 368.5 73.5793C323.194 143.551 322.964 143.401 322.964 143.401L218 313.324L293.55 313.102L445.935 69.6149Z" fill="url(#paint4_linear_63_53)" fill-opacity="0.8"/>
<path d="M444.889 70.1327C444.205 70.1327 443.21 70.1333 441.97 70.1333C439.489 70.1333 436.022 70.1329 432.083 70.1329C424.204 70.1329 414.433 70.1327 406.865 70.1327C392.274 70.1327 382.712 71.1226 376.805 72.1089C373.852 72.602 371.813 73.0943 370.518 73.461C369.87 73.6444 369.408 73.7963 369.111 73.9014C368.982 73.9467 368.885 73.9841 368.816 74.0107C346.218 108.912 334.852 126.336 329.138 135.036C326.277 139.39 324.831 141.56 324.1 142.643C323.735 143.183 323.546 143.455 323.447 143.593C323.403 143.656 323.373 143.696 323.352 143.722L218.908 312.803L293.287 312.585L445.024 70.1326C444.981 70.1326 444.935 70.1327 444.889 70.1327Z" stroke="white" stroke-opacity="0.5"/>
<path d="M446.775 368.528L446.775 439.324L180.136 439.094L180.136 368.528L446.775 368.528Z" fill="url(#paint5_linear_63_53)" fill-opacity="0.8"/>
<path d="M446.275 438.823L180.636 438.594L180.636 369.028L446.275 369.028L446.275 438.823Z" stroke="white" stroke-opacity="0.5"/>
<path d="M381.759 267.437L446.775 166.346L446.775 439.324H382L381.759 267.437Z" fill="url(#paint6_linear_63_53)" fill-opacity="0.8"/>
<path d="M446.276 438.823H382.499L382.259 267.584L446.276 168.046L446.276 438.823Z" stroke="white" stroke-opacity="0.5"/>
</g>
</g>
<defs>
<filter id="filter0_ddddd_63_53" x="-118" y="-28.6765" width="748.775" height="738" filterUnits="userSpaceOnUse" color-interpolation-filters="sRGB">
<feFlood flood-opacity="0" result="BackgroundImageFix"/>
<feColorMatrix in="SourceAlpha" type="matrix" values="0 0 0 0 0 0 0 0 0 0 0 0 0 0 0 0 0 0 127 0" result="hardAlpha"/>
<feOffset dy="2.3392"/>
<feGaussianBlur stdDeviation="4.2688"/>
<feColorMatrix type="matrix" values="0 0 0 0 0 0 0 0 0 0 0 0 0 0 0 0 0 0 0.035984 0"/>
<feBlend mode="normal" in2="BackgroundImageFix" result="effect1_dropShadow_63_53"/>
<feColorMatrix in="SourceAlpha" type="matrix" values="0 0 0 0 0 0 0 0 0 0 0 0 0 0 0 0 0 0 127 0" result="hardAlpha"/>
<feOffset dy="10.4576"/>
<feGaussianBlur stdDeviation="9.8624"/>
<feColorMatrix type="matrix" values="0 0 0 0 0 0 0 0 0 0 0 0 0 0 0 0 0 0 0.056992 0"/>
<feBlend mode="normal" in2="effect1_dropShadow_63_53" result="effect2_dropShadow_63_53"/>
<feColorMatrix in="SourceAlpha" type="matrix" values="0 0 0 0 0 0 0 0 0 0 0 0 0 0 0 0 0 0 127 0" result="hardAlpha"/>
<feOffset dy="26.0064"/>
<feGaussianBlur stdDeviation="22.5216"/>
<feColorMatrix type="matrix" values="0 0 0 0 0 0 0 0 0 0 0 0 0 0 0 0 0 0 0.073008 0"/>
<feBlend mode="normal" in2="effect2_dropShadow_63_53" result="effect3_dropShadow_63_53"/>
<feColorMatrix in="SourceAlpha" type="matrix" values="0 0 0 0 0 0 0 0 0 0 0 0 0 0 0 0 0 0 127 0" result="hardAlpha"/>
<feOffset dy="50.6368"/>
<feGaussianBlur stdDeviation="47.9872"/>
<feColorMatrix type="matrix" values="0 0 0 0 0 0 0 0 0 0 0 0 0 0 0 0 0 0 0.094016 0"/>
<feBlend mode="normal" in2="effect3_dropShadow_63_53" result="effect4_dropShadow_63_53"/>
<feColorMatrix in="SourceAlpha" type="matrix" values="0 0 0 0 0 0 0 0 0 0 0 0 0 0 0 0 0 0 127 0" result="hardAlpha"/>
<feOffset dy="86"/>
<feGaussianBlur stdDeviation="92"/>
<feColorMatrix type="matrix" values="0 0 0 0 0 0 0 0 0 0 0 0 0 0 0 0 0 0 0.13 0"/>
<feBlend mode="normal" in2="effect4_dropShadow_63_53" result="effect5_dropShadow_63_53"/>
<feBlend mode="normal" in="SourceGraphic" in2="effect5_dropShadow_63_53" result="shape"/>
</filter>
<linearGradient id="paint0_linear_63_53" x1="256" y1="42.3235" x2="252.5" y2="423.324" gradientUnits="userSpaceOnUse">
<stop stop-color="#FEF7C1"/>
<stop offset="0.504808" stop-color="#DDE6AA" stop-opacity="0.9"/>
<stop offset="1" stop-color="#9C9BFF"/>
</linearGradient>
<linearGradient id="paint1_linear_63_53" x1="256" y1="68.8221" x2="256" y2="439.324" gradientUnits="userSpaceOnUse">
<stop offset="0.279074" stop-color="#F9F2C8" stop-opacity="0.5"/>
<stop offset="1" stop-color="#8FA7E9"/>
</linearGradient>
<linearGradient id="paint2_linear_63_53" x1="271.341" y1="223.432" x2="49.1537" y2="420.887" gradientUnits="userSpaceOnUse">
<stop stop-color="#FEFEFF"/>
<stop offset="0.25" stop-color="#6E85B2" stop-opacity="0.9"/>
<stop offset="1" stop-color="white"/>
</linearGradient>
<linearGradient id="paint3_linear_63_53" x1="89.8989" y1="51.1338" x2="262.667" y2="279.744" gradientUnits="userSpaceOnUse">
<stop stop-color="#FDFDFD"/>
<stop offset="0.423077" stop-color="white"/>
<stop offset="1" stop-color="white"/>
</linearGradient>
<linearGradient id="paint4_linear_63_53" x1="421.981" y1="50.9845" x2="221.263" y2="316.579" gradientUnits="userSpaceOnUse">
<stop stop-color="white"/>
<stop offset="0.908654" stop-color="#E8EBEF"/>
<stop offset="1" stop-color="white"/>
</linearGradient>
<linearGradient id="paint5_linear_63_53" x1="446.775" y1="403.811" x2="180.136" y2="403.811" gradientUnits="userSpaceOnUse">
<stop stop-color="#E3EEFF"/>
<stop offset="1" stop-color="#E3CDFF"/>
</linearGradient>
<linearGradient id="paint6_linear_63_53" x1="414.267" y1="166.346" x2="414.267" y2="439.094" gradientUnits="userSpaceOnUse">
<stop stop-color="#A2C3FA"/>
<stop offset="1" stop-color="white"/>
</linearGradient>
</defs>
</svg>
