<svg width="1024" height="1024" viewBox="0 0 1024 1024" fill="none" xmlns="http://www.w3.org/2000/svg">
<defs>
<linearGradient id="paint0_linear_78_639" x1="2172.01" y1="811.321" x2="2171.71" y2="818.851" gradientUnits="userSpaceOnUse">
<stop stop-color="#222121"/>
<stop offset="1" stop-color="#050505"/>
</linearGradient>
<linearGradient id="paint1_linear_78_639" x1="2132.01" y1="822.482" x2="2131.57" y2="833.778" gradientUnits="userSpaceOnUse">
<stop stop-color="#222121"/>
<stop offset="1" stop-color="#050505"/>
</linearGradient>
<linearGradient id="paint2_linear_78_639" x1="2084.02" y1="833.643" x2="2083.42" y2="848.703" gradientUnits="userSpaceOnUse">
<stop stop-color="#222121"/>
<stop offset="1" stop-color="#050505"/>
</linearGradient>
<linearGradient id="paint3_linear_78_639" x1="2024.03" y1="855.964" x2="2023.13" y2="878.554" gradientUnits="userSpaceOnUse">
<stop stop-color="#222121"/>
<stop offset="1" stop-color="#050505"/>
</linearGradient>
<linearGradient id="paint4_linear_78_639" x1="1916.07" y1="967.571" x2="1913.69" y2="1027.81" gradientUnits="userSpaceOnUse">
<stop stop-color="#222121"/>
<stop offset="1" stop-color="#050505"/>
</linearGradient>
<linearGradient id="paint5_linear_78_639" x1="1704.15" y1="1146.14" x2="1699.37" y2="1266.63" gradientUnits="userSpaceOnUse">
<stop stop-color="#222121"/>
<stop offset="1" stop-color="#050505"/>
</linearGradient>
<linearGradient id="paint6_linear_78_639" x1="1300.29" y1="1503.28" x2="1290.75" y2="1744.25" gradientUnits="userSpaceOnUse">
<stop stop-color="#222121"/>
<stop offset="1" stop-color="#050505"/>
</linearGradient>
<linearGradient id="paint7_linear_78_639" x1="512.591" y1="2217.57" x2="493.5" y2="2699.5" gradientUnits="userSpaceOnUse">
<stop stop-color="#222121"/>
<stop offset="1" stop-color="#050505"/>
</linearGradient>
<linearGradient id="paint8_linear_78_639" x1="2172.01" y1="6.32129" x2="2171.71" y2="13.8515" gradientUnits="userSpaceOnUse">
<stop stop-color="white"/>
<stop offset="1" stop-color="#BCB5B5"/>
</linearGradient>
<linearGradient id="paint9_linear_78_639" x1="2132.01" y1="9.48242" x2="2131.57" y2="20.7777" gradientUnits="userSpaceOnUse">
<stop stop-color="white"/>
<stop offset="1" stop-color="#BCB5B5"/>
</linearGradient>
<linearGradient id="paint10_linear_78_639" x1="2084.02" y1="12.6426" x2="2083.42" y2="27.7029" gradientUnits="userSpaceOnUse">
<stop stop-color="white"/>
<stop offset="1" stop-color="#BCB5B5"/>
</linearGradient>
<linearGradient id="paint11_linear_78_639" x1="2024.03" y1="18.9639" x2="2023.13" y2="41.5544" gradientUnits="userSpaceOnUse">
<stop stop-color="white"/>
<stop offset="1" stop-color="#BCB5B5"/>
</linearGradient>
<linearGradient id="paint12_linear_78_639" x1="1916.07" y1="50.5713" x2="1913.69" y2="110.813" gradientUnits="userSpaceOnUse">
<stop stop-color="white"/>
<stop offset="1" stop-color="#BCB5B5"/>
</linearGradient>
<linearGradient id="paint13_linear_78_639" x1="1704.15" y1="101.143" x2="1699.37" y2="221.625" gradientUnits="userSpaceOnUse">
<stop stop-color="white"/>
<stop offset="1" stop-color="#BCB5B5"/>
</linearGradient>
<linearGradient id="paint14_linear_78_639" x1="1300.29" y1="202.284" x2="1290.75" y2="443.25" gradientUnits="userSpaceOnUse">
<stop stop-color="white"/>
<stop offset="1" stop-color="#BCB5B5"/>
</linearGradient>
<linearGradient id="paint15_linear_78_639" x1="512.591" y1="404.568" x2="493.5" y2="886.5" gradientUnits="userSpaceOnUse">
<stop stop-color="white"/>
<stop offset="1" stop-color="#BCB5B5"/>
</linearGradient>
</defs>
<g id="logo.tema-escuro.1024">
<rect id="bg_8" width="1024" height="1024" fill="#080404"/>
<path id="mark-lee_16" d="M788.537 405.936C778.555 407.001 760.32 410.598 746.61 413.928C729.174 418.323 694.035 434.041 677.93 444.564C668.346 450.957 666.084 452.955 651.309 467.607C622.959 495.846 617.768 504.104 588.352 565.909C583.827 575.367 580.233 583.492 580.233 583.891C580.233 584.691 577.305 590.818 565.459 615.46C562.531 621.321 560.268 626.915 560.268 627.848C560.268 628.78 559.736 630.512 558.937 631.844C556.94 635.573 545.627 659.949 545.627 660.615C545.627 661.014 542.432 668.074 538.572 676.333C534.579 684.591 529.788 695.247 527.658 700.042C525.661 704.837 522.334 712.163 520.204 716.426C518.075 720.555 516.344 724.817 516.344 725.883C516.344 726.815 515.546 728.281 514.614 729.08C513.682 729.879 512.085 733.609 511.02 737.338C510.089 740.935 508.758 743.998 508.092 743.998C507.56 743.998 507.027 744.798 507.027 745.863C507.027 746.929 503.833 754.255 499.973 762.247C496.246 770.106 491.055 781.294 488.526 786.889C485.997 792.617 483.202 797.279 482.403 797.279C481.605 797.279 480.008 795.281 478.81 792.883C475.881 787.289 464.435 762.513 464.435 761.847C464.435 761.314 462.172 756.253 455.65 742C454.053 738.271 451.125 732.01 449.394 728.014C447.531 724.018 443.538 715.227 440.476 708.7C437.415 702.04 434.088 694.581 432.89 692.05C431.825 689.519 428.098 681.394 424.504 674.068C413.989 651.957 412.525 648.627 412.525 647.694C412.525 646.762 408.532 637.838 399.348 618.124C395.621 610.265 392.693 603.871 386.304 589.486C382.577 581.227 380.448 576.699 372.728 559.782C369.666 553.255 367.271 547.661 367.271 547.394C367.271 546.462 361.946 534.874 358.619 528.214C356.889 524.884 353.96 518.357 351.964 513.562C349.967 508.766 344.51 496.778 339.719 486.921C335.06 477.065 330.668 467.741 330.002 466.275C328.139 461.747 322.548 449.359 318.156 440.035C315.893 435.106 314.03 430.444 314.03 429.645C314.03 428.846 311.9 423.784 309.371 418.323L304.713 408.333H192.907C128.619 408.333 81.1021 408.866 81.1021 409.532C81.1021 410.198 85.0951 411.796 90.0199 412.995C107.456 417.657 123.029 426.582 138.07 440.834C150.714 452.822 160.298 471.87 166.553 497.577C167.884 503.438 168.284 533.009 168.017 651.424C167.751 740.136 167.086 803.672 166.287 812.597C164.424 831.378 162.427 846.163 160.963 851.225C160.298 853.356 158.7 859.084 157.502 863.879C150.581 891.185 140.732 911.298 124.493 931.678C117.838 939.936 103.596 952.057 94.2791 957.385C92.5488 958.318 90.153 959.783 89.0882 960.582C86.9585 962.181 65.5292 969.773 59.4065 971.105C45.9632 973.902 63.932 974.435 180.263 974.435C296.993 974.435 314.296 973.902 301.119 970.972C287.942 968.175 271.57 961.248 261.055 954.055C252.271 948.061 237.763 934.075 230.708 924.618C224.852 917.026 211.009 890.119 207.549 879.863C204.887 871.604 201.958 860.682 200.76 854.555C200.228 851.225 199.03 845.497 198.365 841.901C195.17 826.183 194.105 816.459 192.907 793.283C191.443 764.644 191.31 496.512 192.774 495.713C193.839 495.047 196.102 499.176 201.559 512.23C203.689 517.025 207.282 525.017 209.545 530.212C211.941 535.273 215.535 543.398 217.531 548.194C223.92 563.379 224.586 564.711 227.248 570.838C230.841 578.963 238.029 594.547 244.152 607.468C259.591 640.635 262.653 647.295 276.761 679.396C280.621 688.187 287.01 702.173 291.003 710.432C294.863 718.69 298.058 725.75 298.058 726.016C298.058 726.416 301.252 733.476 305.112 741.734C314.296 760.915 315.893 764.378 319.354 773.302C320.951 777.298 323.879 784.225 326.009 788.621C328.006 793.016 331.067 799.543 332.664 803.273C336.657 812.33 341.449 822.853 346.64 833.909C348.903 838.97 351.831 845.364 353.029 847.895C354.094 850.426 357.687 858.284 361.015 865.344C364.342 872.404 367.404 879.463 367.936 881.195C368.468 882.926 371.53 889.986 374.857 897.046C378.185 904.105 381.779 911.964 382.843 914.495C387.502 924.885 393.092 937.139 398.549 948.461C401.611 954.988 405.471 963.646 407.201 967.509L410.395 974.568L429.163 973.769L433.954 963.779C436.617 958.318 439.811 951.658 440.876 949.127C442.074 946.596 446.333 937.006 450.459 927.815C454.585 918.624 458.711 909.3 459.643 907.169C460.708 904.905 463.902 897.445 467.097 890.519C470.158 883.592 473.486 876 474.417 873.869C477.079 867.875 482.936 854.688 486.397 847.229C488.127 843.499 491.188 836.972 493.052 832.577C499.041 819.123 501.836 812.996 506.495 803.273C508.891 798.078 511.819 791.285 513.15 787.954C516.744 778.231 517.143 777.298 524.863 761.048C528.989 752.39 532.317 745.064 532.317 744.664C532.317 744.398 534.18 740.269 536.31 735.74C538.572 731.211 540.303 727.082 540.303 726.549C540.303 725.617 555.21 693.249 557.606 689.12C558.405 687.788 558.937 686.056 558.937 685.257C558.937 683.659 574.643 648.76 587.021 623.186C591.414 614.128 594.874 606.269 594.874 605.603C594.874 604.937 595.806 602.673 596.871 600.541C599.666 595.213 606.188 580.295 608.184 574.834C616.171 552.722 630.412 528.613 633.74 531.943C634.406 532.609 634.672 611.864 634.539 718.157C634.139 891.851 634.006 903.573 631.743 910.499C626.153 927.682 621.894 935.274 612.177 945.131C599.932 957.652 591.014 962.181 560.667 971.238C559.736 971.505 558.937 972.304 558.937 973.103C558.937 974.702 941.737 974.968 942.802 973.37C943.068 972.837 943.734 968.708 944.266 964.445C944.665 960.049 946.263 948.061 947.86 937.805C949.324 927.549 951.054 915.561 951.587 911.165C952.252 906.769 953.982 895.314 955.58 885.857C957.177 876.266 959.04 864.944 959.573 860.549C960.238 856.153 961.969 845.098 963.433 835.907C969.289 800.609 970.487 791.684 969.023 790.219C967.559 788.754 963.699 792.483 963.566 795.414C963.566 796.08 962.102 799.676 960.371 803.406C958.641 807.002 955.314 814.328 953.051 819.656C947.727 831.777 942.003 842.434 935.348 852.157C932.553 856.286 930.29 860.149 930.29 860.549C930.29 863.213 912.189 885.857 899.943 898.777C881.176 918.358 848.832 942.467 841.245 942.467C839.914 942.467 838.45 943 837.652 943.666C834.191 946.863 818.086 950.459 806.905 950.459C787.339 950.459 777.224 943.533 771.766 926.483C769.104 917.958 768.971 542.333 771.633 526.882C775.493 505.037 778.422 493.581 783.479 481.593C795.192 453.621 806.772 439.769 825.673 430.444C834.59 426.049 851.095 423.651 856.818 425.782L860.412 427.248L857.085 429.912C842.443 441.633 831.529 456.019 827.802 468.273C825.539 475.866 824.475 505.436 826.338 507.301C827.137 508.1 827.802 509.699 827.802 510.898C827.802 512.096 829.666 517.025 832.061 521.687C837.519 532.609 853.624 548.993 863.873 553.788C905.134 573.369 950.788 553.655 964.764 510.498C972.883 485.19 964.231 454.953 943.334 435.373C926.963 420.188 901.141 409.665 870.262 405.802C857.085 404.071 804.11 404.204 788.537 405.936Z" fill="url(#paint15_linear_78_639)"/>
</g>
</svg>