<svg width="1024" height="1024" viewBox="0 1813 1024 1024" fill="none" xmlns="http://www.w3.org/2000/svg">
<defs>
<linearGradient id="paint0_linear_78_639" x1="2172.01" y1="811.321" x2="2171.71" y2="818.851" gradientUnits="userSpaceOnUse">
<stop stop-color="#222121"/>
<stop offset="1" stop-color="#050505"/>
</linearGradient>
<linearGradient id="paint1_linear_78_639" x1="2132.01" y1="822.482" x2="2131.57" y2="833.778" gradientUnits="userSpaceOnUse">
<stop stop-color="#222121"/>
<stop offset="1" stop-color="#050505"/>
</linearGradient>
<linearGradient id="paint2_linear_78_639" x1="2084.02" y1="833.643" x2="2083.42" y2="848.703" gradientUnits="userSpaceOnUse">
<stop stop-color="#222121"/>
<stop offset="1" stop-color="#050505"/>
</linearGradient>
<linearGradient id="paint3_linear_78_639" x1="2024.03" y1="855.964" x2="2023.13" y2="878.554" gradientUnits="userSpaceOnUse">
<stop stop-color="#222121"/>
<stop offset="1" stop-color="#050505"/>
</linearGradient>
<linearGradient id="paint4_linear_78_639" x1="1916.07" y1="967.571" x2="1913.69" y2="1027.81" gradientUnits="userSpaceOnUse">
<stop stop-color="#222121"/>
<stop offset="1" stop-color="#050505"/>
</linearGradient>
<linearGradient id="paint5_linear_78_639" x1="1704.15" y1="1146.14" x2="1699.37" y2="1266.63" gradientUnits="userSpaceOnUse">
<stop stop-color="#222121"/>
<stop offset="1" stop-color="#050505"/>
</linearGradient>
<linearGradient id="paint6_linear_78_639" x1="1300.29" y1="1503.28" x2="1290.75" y2="1744.25" gradientUnits="userSpaceOnUse">
<stop stop-color="#222121"/>
<stop offset="1" stop-color="#050505"/>
</linearGradient>
<linearGradient id="paint7_linear_78_639" x1="512.591" y1="2217.57" x2="493.5" y2="2699.5" gradientUnits="userSpaceOnUse">
<stop stop-color="#222121"/>
<stop offset="1" stop-color="#050505"/>
</linearGradient>
<linearGradient id="paint8_linear_78_639" x1="2172.01" y1="6.32129" x2="2171.71" y2="13.8515" gradientUnits="userSpaceOnUse">
<stop stop-color="white"/>
<stop offset="1" stop-color="#BCB5B5"/>
</linearGradient>
<linearGradient id="paint9_linear_78_639" x1="2132.01" y1="9.48242" x2="2131.57" y2="20.7777" gradientUnits="userSpaceOnUse">
<stop stop-color="white"/>
<stop offset="1" stop-color="#BCB5B5"/>
</linearGradient>
<linearGradient id="paint10_linear_78_639" x1="2084.02" y1="12.6426" x2="2083.42" y2="27.7029" gradientUnits="userSpaceOnUse">
<stop stop-color="white"/>
<stop offset="1" stop-color="#BCB5B5"/>
</linearGradient>
<linearGradient id="paint11_linear_78_639" x1="2024.03" y1="18.9639" x2="2023.13" y2="41.5544" gradientUnits="userSpaceOnUse">
<stop stop-color="white"/>
<stop offset="1" stop-color="#BCB5B5"/>
</linearGradient>
<linearGradient id="paint12_linear_78_639" x1="1916.07" y1="50.5713" x2="1913.69" y2="110.813" gradientUnits="userSpaceOnUse">
<stop stop-color="white"/>
<stop offset="1" stop-color="#BCB5B5"/>
</linearGradient>
<linearGradient id="paint13_linear_78_639" x1="1704.15" y1="101.143" x2="1699.37" y2="221.625" gradientUnits="userSpaceOnUse">
<stop stop-color="white"/>
<stop offset="1" stop-color="#BCB5B5"/>
</linearGradient>
<linearGradient id="paint14_linear_78_639" x1="1300.29" y1="202.284" x2="1290.75" y2="443.25" gradientUnits="userSpaceOnUse">
<stop stop-color="white"/>
<stop offset="1" stop-color="#BCB5B5"/>
</linearGradient>
<linearGradient id="paint15_linear_78_639" x1="512.591" y1="404.568" x2="493.5" y2="886.5" gradientUnits="userSpaceOnUse">
<stop stop-color="white"/>
<stop offset="1" stop-color="#BCB5B5"/>
</linearGradient>
</defs>
<g id="logo.tema-claro.1024">
<rect id="bg_4" y="1813" width="1024" height="1024" fill="white"/>
<path id="mark-lee_8" d="M788.537 2218.94C778.555 2220 760.32 2223.6 746.61 2226.93C729.174 2231.32 694.035 2247.04 677.93 2257.56C668.346 2263.96 666.084 2265.96 651.309 2280.61C622.959 2308.85 617.768 2317.1 588.352 2378.91C583.827 2388.37 580.233 2396.49 580.233 2396.89C580.233 2397.69 577.305 2403.82 565.459 2428.46C562.531 2434.32 560.268 2439.92 560.268 2440.85C560.268 2441.78 559.736 2443.51 558.937 2444.84C556.94 2448.57 545.627 2472.95 545.627 2473.61C545.627 2474.01 542.432 2481.07 538.572 2489.33C534.579 2497.59 529.788 2508.25 527.658 2513.04C525.661 2517.84 522.334 2525.16 520.204 2529.43C518.075 2533.56 516.344 2537.82 516.344 2538.88C516.344 2539.82 515.546 2541.28 514.614 2542.08C513.682 2542.88 512.085 2546.61 511.02 2550.34C510.089 2553.93 508.758 2557 508.092 2557C507.56 2557 507.027 2557.8 507.027 2558.86C507.027 2559.93 503.833 2567.25 499.973 2575.25C496.246 2583.11 491.055 2594.29 488.526 2599.89C485.997 2605.62 483.202 2610.28 482.403 2610.28C481.605 2610.28 480.008 2608.28 478.81 2605.88C475.881 2600.29 464.435 2575.51 464.435 2574.85C464.435 2574.31 462.172 2569.25 455.65 2555C454.053 2551.27 451.125 2545.01 449.394 2541.01C447.531 2537.02 443.538 2528.23 440.476 2521.7C437.415 2515.04 434.088 2507.58 432.89 2505.05C431.825 2502.52 428.098 2494.39 424.504 2487.07C413.989 2464.96 412.525 2461.63 412.525 2460.69C412.525 2459.76 408.532 2450.84 399.348 2431.12C395.621 2423.27 392.693 2416.87 386.304 2402.49C382.577 2394.23 380.448 2389.7 372.728 2372.78C369.666 2366.26 367.271 2360.66 367.271 2360.39C367.271 2359.46 361.946 2347.87 358.619 2341.21C356.889 2337.88 353.96 2331.36 351.964 2326.56C349.967 2321.77 344.51 2309.78 339.719 2299.92C335.06 2290.06 330.668 2280.74 330.002 2279.28C328.139 2274.75 322.548 2262.36 318.156 2253.03C315.893 2248.11 314.03 2243.44 314.03 2242.65C314.03 2241.85 311.9 2236.78 309.371 2231.32L304.713 2221.33H192.907C128.619 2221.33 81.1021 2221.87 81.1021 2222.53C81.1021 2223.2 85.0951 2224.8 90.0199 2226C107.456 2230.66 123.029 2239.58 138.07 2253.83C150.714 2265.82 160.298 2284.87 166.553 2310.58C167.884 2316.44 168.284 2346.01 168.017 2464.42C167.751 2553.14 167.086 2616.67 166.287 2625.6C164.424 2644.38 162.427 2659.16 160.963 2664.22C160.298 2666.36 158.7 2672.08 157.502 2676.88C150.581 2704.18 140.732 2724.3 124.493 2744.68C117.838 2752.94 103.596 2765.06 94.2791 2770.39C92.5488 2771.32 90.153 2772.78 89.0882 2773.58C86.9585 2775.18 65.5292 2782.77 59.4065 2784.11C45.9632 2786.9 63.932 2787.44 180.263 2787.44C296.993 2787.44 314.296 2786.9 301.119 2783.97C287.942 2781.17 271.57 2774.25 261.055 2767.06C252.271 2761.06 237.763 2747.08 230.708 2737.62C224.852 2730.03 211.009 2703.12 207.549 2692.86C204.887 2684.6 201.958 2673.68 200.76 2667.55C200.228 2664.22 199.03 2658.5 198.365 2654.9C195.17 2639.18 194.105 2629.46 192.907 2606.28C191.443 2577.64 191.31 2309.51 192.774 2308.71C193.839 2308.05 196.102 2312.18 201.559 2325.23C203.689 2330.02 207.282 2338.02 209.545 2343.21C211.941 2348.27 215.535 2356.4 217.531 2361.19C223.92 2376.38 224.586 2377.71 227.248 2383.84C230.841 2391.96 238.029 2407.55 244.152 2420.47C259.591 2453.63 262.653 2460.29 276.761 2492.4C280.621 2501.19 287.01 2515.17 291.003 2523.43C294.863 2531.69 298.058 2538.75 298.058 2539.02C298.058 2539.42 301.252 2546.48 305.112 2554.73C314.296 2573.91 315.893 2577.38 319.354 2586.3C320.951 2590.3 323.879 2597.22 326.009 2601.62C328.006 2606.02 331.067 2612.54 332.664 2616.27C336.657 2625.33 341.449 2635.85 346.64 2646.91C348.903 2651.97 351.831 2658.36 353.029 2660.89C354.094 2663.43 357.687 2671.28 361.015 2678.34C364.342 2685.4 367.404 2692.46 367.936 2694.19C368.468 2695.93 371.53 2702.99 374.857 2710.05C378.185 2717.11 381.779 2724.96 382.843 2727.49C387.502 2737.88 393.092 2750.14 398.549 2761.46C401.611 2767.99 405.471 2776.65 407.201 2780.51L410.395 2787.57L429.163 2786.77L433.954 2776.78C436.617 2771.32 439.811 2764.66 440.876 2762.13C442.074 2759.6 446.333 2750.01 450.459 2740.82C454.585 2731.62 458.711 2722.3 459.643 2720.17C460.708 2717.9 463.902 2710.45 467.097 2703.52C470.158 2696.59 473.486 2689 474.417 2686.87C477.079 2680.87 482.936 2667.69 486.397 2660.23C488.127 2656.5 491.188 2649.97 493.052 2645.58C499.041 2632.12 501.836 2626 506.495 2616.27C508.891 2611.08 511.819 2604.28 513.15 2600.95C516.744 2591.23 517.143 2590.3 524.863 2574.05C528.989 2565.39 532.317 2558.06 532.317 2557.66C532.317 2557.4 534.18 2553.27 536.31 2548.74C538.572 2544.21 540.303 2540.08 540.303 2539.55C540.303 2538.62 555.21 2506.25 557.606 2502.12C558.405 2500.79 558.937 2499.06 558.937 2498.26C558.937 2496.66 574.643 2461.76 587.021 2436.19C591.414 2427.13 594.874 2419.27 594.874 2418.6C594.874 2417.94 595.806 2415.67 596.871 2413.54C599.666 2408.21 606.188 2393.29 608.184 2387.83C616.171 2365.72 630.412 2341.61 633.74 2344.94C634.406 2345.61 634.672 2424.86 634.539 2531.16C634.139 2704.85 634.006 2716.57 631.743 2723.5C626.153 2740.68 621.894 2748.27 612.177 2758.13C599.932 2770.65 591.014 2775.18 560.667 2784.24C559.736 2784.5 558.937 2785.3 558.937 2786.1C558.937 2787.7 941.737 2787.97 942.802 2786.37C943.068 2785.84 943.734 2781.71 944.266 2777.45C944.665 2773.05 946.263 2761.06 947.86 2750.81C949.324 2740.55 951.054 2728.56 951.587 2724.16C952.252 2719.77 953.982 2708.31 955.58 2698.86C957.177 2689.27 959.04 2677.94 959.573 2673.55C960.238 2669.15 961.969 2658.1 963.433 2648.91C969.289 2613.61 970.487 2604.68 969.023 2603.22C967.559 2601.75 963.699 2605.48 963.566 2608.41C963.566 2609.08 962.102 2612.68 960.371 2616.41C958.641 2620 955.314 2627.33 953.051 2632.66C947.727 2644.78 942.003 2655.43 935.348 2665.16C932.553 2669.29 930.29 2673.15 930.29 2673.55C930.29 2676.21 912.189 2698.86 899.943 2711.78C881.176 2731.36 848.832 2755.47 841.245 2755.47C839.914 2755.47 838.45 2756 837.652 2756.67C834.191 2759.86 818.086 2763.46 806.905 2763.46C787.339 2763.46 777.224 2756.53 771.766 2739.48C769.104 2730.96 768.971 2355.33 771.633 2339.88C775.493 2318.04 778.422 2306.58 783.479 2294.59C795.192 2266.62 806.772 2252.77 825.673 2243.44C834.59 2239.05 851.095 2236.65 856.818 2238.78L860.412 2240.25L857.085 2242.91C842.443 2254.63 831.529 2269.02 827.802 2281.27C825.539 2288.87 824.475 2318.44 826.338 2320.3C827.137 2321.1 827.802 2322.7 827.802 2323.9C827.802 2325.1 829.666 2330.02 832.061 2334.69C837.519 2345.61 853.624 2361.99 863.873 2366.79C905.134 2386.37 950.788 2366.65 964.764 2323.5C972.883 2298.19 964.231 2267.95 943.334 2248.37C926.963 2233.19 901.141 2222.67 870.262 2218.8C857.085 2217.07 804.11 2217.2 788.537 2218.94Z" fill="url(#paint7_linear_78_639)"/>
</g>
</svg>