<svg width="1024" height="1024" viewBox="0 0 1024 1024" fill="none" xmlns="http://www.w3.org/2000/svg">
<g filter="url(#filter0_i_304_2)">
<rect width="1024" height="1024" rx="30" fill="url(#paint0_linear_304_2)"/>
</g>
<g filter="url(#filter1_i_304_2)">
<path d="M788.514 405.936C778.531 407.001 760.297 410.598 746.587 413.928C729.151 418.323 694.012 434.041 677.907 444.564C668.323 450.957 666.061 452.955 651.286 467.607C622.936 495.846 617.745 504.104 588.329 565.909C583.804 575.367 580.21 583.492 580.21 583.891C580.21 584.691 577.282 590.818 565.436 615.46C562.508 621.321 560.245 626.915 560.245 627.848C560.245 628.78 559.712 630.512 558.914 631.844C556.917 635.573 545.604 659.949 545.604 660.615C545.604 661.015 542.409 668.074 538.549 676.333C534.556 684.591 529.765 695.247 527.635 700.042C525.638 704.838 522.311 712.164 520.181 716.426C518.052 720.555 516.321 724.818 516.321 725.883C516.321 726.816 515.523 728.281 514.591 729.08C513.659 729.879 512.062 733.609 510.997 737.338C510.065 740.935 508.734 743.998 508.069 743.998C507.537 743.998 507.004 744.798 507.004 745.863C507.004 746.929 503.81 754.255 499.95 762.247C496.223 770.106 491.032 781.295 488.503 786.889C485.974 792.617 483.179 797.279 482.38 797.279C481.582 797.279 479.985 795.281 478.787 792.883C475.858 787.289 464.412 762.513 464.412 761.847C464.412 761.315 462.149 756.253 455.627 742C454.03 738.271 451.101 732.01 449.371 728.014C447.508 724.018 443.515 715.227 440.453 708.7C437.392 702.04 434.064 694.581 432.866 692.05C431.802 689.519 428.075 681.394 424.481 674.068C413.966 651.957 412.502 648.627 412.502 647.695C412.502 646.762 408.509 637.838 399.325 618.124C395.598 610.265 392.67 603.872 386.281 589.486C382.554 581.227 380.424 576.699 372.705 559.782C369.643 553.255 367.247 547.661 367.247 547.395C367.247 546.462 361.923 534.874 358.596 528.214C356.865 524.884 353.937 518.357 351.941 513.562C349.944 508.766 344.487 496.778 339.695 486.921C335.037 477.065 330.644 467.741 329.979 466.275C328.116 461.747 322.525 449.359 318.133 440.035C315.87 435.106 314.007 430.444 314.007 429.645C314.007 428.846 311.877 423.784 309.348 418.323C306.506 412.229 300.391 408.333 293.667 408.333H192.884C128.596 408.333 81.0789 408.866 81.0789 409.532C81.0789 410.198 85.072 411.796 89.9967 412.995C107.433 417.657 123.006 426.582 138.046 440.834C150.691 452.822 160.274 471.87 166.53 497.578C167.861 503.438 168.26 533.008 167.994 651.424C167.728 740.136 167.063 803.672 166.264 812.597C164.401 831.378 162.404 846.163 160.94 851.225C160.274 853.356 158.677 859.084 157.479 863.879C150.558 891.185 140.708 911.298 124.47 931.678C117.815 939.936 103.573 952.058 94.256 957.386C92.5256 958.318 90.1298 959.783 89.065 960.582C86.9354 962.181 65.6211 971.668 59.4984 973C46.0552 975.797 63.6692 974 180 974C296.73 974 314.176 975.93 300.999 973C287.822 970.203 271.547 961.249 261.032 954.056C252.248 948.062 237.74 934.076 230.685 924.618C224.829 917.026 210.986 890.119 207.525 879.863C204.863 871.605 201.935 860.682 200.737 854.555C200.205 851.225 199.007 845.497 198.341 841.901C195.147 826.183 194.082 816.46 192.884 793.283C191.42 764.644 191.287 496.512 192.751 495.713C193.816 495.047 196.079 499.176 201.536 512.23C203.666 517.025 207.259 525.017 209.522 530.212C211.918 535.273 215.512 543.398 217.508 548.194C223.897 563.379 224.562 564.711 227.225 570.838C230.818 578.963 238.006 594.547 244.128 607.468C259.568 640.635 262.63 647.295 276.738 679.396C280.598 688.187 286.987 702.173 290.98 710.432C294.84 718.69 298.035 725.75 298.035 726.016C298.035 726.416 301.229 733.476 305.089 741.734C314.273 760.915 315.87 764.378 319.331 773.303C320.928 777.299 323.856 784.225 325.986 788.621C327.982 793.016 331.044 799.543 332.641 803.273C336.634 812.33 341.426 822.853 346.617 833.909C348.879 838.97 351.808 845.364 353.006 847.895C354.07 850.426 357.664 858.284 360.992 865.344C364.319 872.404 367.38 879.463 367.913 881.195C368.445 882.927 371.507 889.986 374.834 897.046C378.162 904.105 381.755 911.964 382.82 914.495C387.479 924.885 393.069 937.139 398.526 948.461C401.588 954.988 405.448 963.646 407.178 967.509C409.108 971.774 413.437 974.438 418.114 974.239L420.312 974.145C425.745 973.914 430.609 970.706 432.961 965.802L433.931 963.779C436.593 958.318 439.788 951.658 440.853 949.127C442.051 946.596 446.31 937.006 450.436 927.815C454.562 918.624 458.688 909.3 459.62 907.169C460.685 904.905 463.879 897.445 467.074 890.519C470.135 883.593 473.463 876 474.394 873.869C477.056 867.875 482.913 854.688 486.373 847.229C488.104 843.499 491.165 836.972 493.028 832.577C499.018 819.124 501.813 812.996 506.472 803.273C508.868 798.078 511.796 791.285 513.127 787.955C516.721 778.231 517.12 777.299 524.84 761.048C528.966 752.39 532.293 745.064 532.293 744.664C532.293 744.398 534.157 740.269 536.286 735.74C538.549 731.211 540.28 727.082 540.28 726.549C540.28 725.617 555.187 693.249 557.583 689.12C558.381 687.788 558.914 686.056 558.914 685.257C558.914 683.659 574.62 648.76 586.998 623.186C591.391 614.128 594.851 606.269 594.851 605.603C594.851 604.937 595.783 602.673 596.848 600.542C599.643 595.213 606.165 580.295 608.161 574.834C616.147 552.722 630.389 528.613 633.717 531.943C634.382 532.609 634.649 611.863 634.516 718.158C634.116 891.852 633.983 903.573 631.72 910.499C626.13 927.682 621.871 935.274 612.154 945.131C599.909 957.652 576.639 969.338 561 974C545.361 978.662 766 974 768 974C778 974.001 942.5 973.5 942.978 974C943.456 974.5 941.257 976.055 943.5 964.5C944.341 960.167 946.24 948.062 947.837 937.805C949.301 927.549 951.031 915.561 951.564 911.165C952.229 906.769 953.959 895.314 955.557 885.857C957.154 876.267 959.017 864.945 959.55 860.549C960.215 856.153 961.946 845.098 963.41 835.907C969.266 800.609 970.464 791.684 969 790.219C967.536 788.754 963.676 792.483 963.543 795.414C963.543 796.08 962.079 799.676 960.348 803.406C958.618 807.002 955.29 814.328 953.028 819.656C947.704 831.778 941.98 842.434 935.325 852.157C932.53 856.286 930.267 860.149 930.267 860.549C930.267 863.213 912.166 885.857 899.92 898.777C881.153 918.358 848.809 942.467 841.222 942.467C839.891 942.467 838.427 943 837.629 943.666C834.168 946.863 818.063 950.459 806.882 950.459C787.316 950.459 777.2 943.533 771.743 926.483C769.081 917.958 768.948 542.333 771.61 526.882C775.47 505.037 778.398 493.582 783.456 481.593C795.169 453.621 806.749 439.769 825.649 430.444C834.567 426.049 851.072 423.651 856.795 425.782C858.406 426.439 858.717 428.586 857.359 429.673L857.061 429.912C842.42 441.633 831.506 456.019 827.779 468.273C825.516 475.866 824.452 505.436 826.315 507.301C827.114 508.1 827.779 509.699 827.779 510.898C827.779 512.096 829.643 517.025 832.038 521.687C837.495 532.609 853.601 548.993 863.85 553.788C905.111 573.369 950.765 553.655 964.741 510.498C972.86 485.19 964.208 454.953 943.311 435.373C926.94 420.188 901.118 409.665 870.239 405.802C857.061 404.071 804.087 404.204 788.514 405.936Z" fill="url(#paint1_linear_304_2)"/>
</g>
<defs>
<filter id="filter0_i_304_2" x="0" y="0" width="1024" height="1025" filterUnits="userSpaceOnUse" color-interpolation-filters="sRGB">
<feFlood flood-opacity="0" result="BackgroundImageFix"/>
<feBlend mode="normal" in="SourceGraphic" in2="BackgroundImageFix" result="shape"/>
<feColorMatrix in="SourceAlpha" type="matrix" values="0 0 0 0 0 0 0 0 0 0 0 0 0 0 0 0 0 0 127 0" result="hardAlpha"/>
<feOffset dy="1"/>
<feGaussianBlur stdDeviation="1"/>
<feComposite in2="hardAlpha" operator="arithmetic" k2="-1" k3="1"/>
<feColorMatrix type="matrix" values="0 0 0 0 0.594702 0 0 0 0 0.594702 0 0 0 0 0.594702 0 0 0 0.25 0"/>
<feBlend mode="normal" in2="shape" result="effect1_innerShadow_304_2"/>
</filter>
<filter id="filter1_i_304_2" x="55.6523" y="404.568" width="913.916" height="573.504" filterUnits="userSpaceOnUse" color-interpolation-filters="sRGB">
<feFlood flood-opacity="0" result="BackgroundImageFix"/>
<feBlend mode="normal" in="SourceGraphic" in2="BackgroundImageFix" result="shape"/>
<feColorMatrix in="SourceAlpha" type="matrix" values="0 0 0 0 0 0 0 0 0 0 0 0 0 0 0 0 0 0 127 0" result="hardAlpha"/>
<feOffset dy="2"/>
<feGaussianBlur stdDeviation="1"/>
<feComposite in2="hardAlpha" operator="arithmetic" k2="-1" k3="1"/>
<feColorMatrix type="matrix" values="0 0 0 0 0.557895 0 0 0 0 0.509595 0 0 0 0 0.509595 0 0 0 1 0"/>
<feBlend mode="normal" in2="shape" result="effect1_innerShadow_304_2"/>
</filter>
<linearGradient id="paint0_linear_304_2" x1="8.37395e-06" y1="21.0051" x2="260.882" y2="1085.54" gradientUnits="userSpaceOnUse">
<stop stop-color="#303030"/>
<stop offset="1" stop-color="#0B0B0B"/>
</linearGradient>
<linearGradient id="paint1_linear_304_2" x1="512.59" y1="404.568" x2="493.499" y2="886.5" gradientUnits="userSpaceOnUse">
<stop stop-color="white"/>
<stop offset="1" stop-color="#BCB5B5"/>
</linearGradient>
</defs>
</svg>
