<svg width="60" height="60" viewBox="0 0 60 60" fill="none" xmlns="http://www.w3.org/2000/svg">
<g filter="url(#filter0_i_304_52)">
<rect width="60" height="60" rx="30" fill="url(#paint0_linear_304_52)"/>
</g>
<g filter="url(#filter1_i_304_52)">
<path d="M44.4908 15.0718C43.9665 15.1277 43.0088 15.3165 42.2888 15.4913C41.373 15.722 39.5275 16.5471 38.6816 17.0995C38.1783 17.4351 38.0594 17.54 37.2835 18.3091C35.7944 19.7914 35.5218 20.2249 33.9769 23.4693C33.7392 23.9657 33.5504 24.3922 33.5504 24.4132C33.5504 24.4552 33.3966 24.7768 32.7745 26.0704C32.6207 26.378 32.5018 26.6717 32.5018 26.7206C32.5018 26.7696 32.4739 26.8605 32.4319 26.9304C32.3271 27.1262 31.7329 28.4057 31.7329 28.4407C31.7329 28.4617 31.5651 28.8322 31.3624 29.2657C31.1526 29.6993 30.901 30.2586 30.7891 30.5103C30.6843 30.7621 30.5095 31.1466 30.3976 31.3704C30.2858 31.5871 30.1949 31.8109 30.1949 31.8668C30.1949 31.9158 30.153 31.9927 30.104 32.0346C30.0551 32.0766 29.9712 32.2724 29.9153 32.4681C29.8664 32.6569 29.7965 32.8177 29.7615 32.8177C29.7335 32.8177 29.7056 32.8597 29.7056 32.9156C29.7056 32.9716 29.5378 33.3561 29.3351 33.7757C29.1393 34.1882 28.8667 34.7755 28.7339 35.0692C28.601 35.3699 28.4542 35.6146 28.4123 35.6146C28.3704 35.6146 28.2865 35.5097 28.2236 35.3838C28.0698 35.0902 27.4686 33.7896 27.4686 33.7547C27.4686 33.7267 27.3497 33.461 27.0072 32.7129C26.9233 32.5171 26.7695 32.1885 26.6786 31.9787C26.5807 31.7689 26.371 31.3074 26.2102 30.9648C26.0495 30.6152 25.8747 30.2237 25.8118 30.0908C25.7558 29.958 25.5601 29.5315 25.3714 29.1469C24.8191 27.9862 24.7422 27.8114 24.7422 27.7624C24.7422 27.7135 24.5325 27.245 24.0501 26.2102C23.8544 25.7977 23.7006 25.462 23.365 24.7069C23.1693 24.2734 23.0574 24.0357 22.652 23.1477C22.4912 22.805 22.3654 22.5114 22.3654 22.4974C22.3654 22.4484 22.0857 21.8401 21.911 21.4905C21.8201 21.3157 21.6663 20.9731 21.5614 20.7214C21.4566 20.4697 21.17 19.8404 20.9183 19.323C20.6736 18.8056 20.4429 18.3161 20.408 18.2392C20.3101 18.0015 20.0165 17.3512 19.7858 16.8617C19.667 16.603 19.5691 16.3583 19.5691 16.3164C19.5691 16.2744 19.4573 16.0087 19.3244 15.722C19.1752 15.4021 18.8541 15.1976 18.5011 15.1976H13.2076C9.8311 15.1976 7.33544 15.2256 7.33544 15.2606C7.33544 15.2955 7.54516 15.3794 7.80381 15.4424C8.71959 15.6871 9.5375 16.1555 10.3274 16.9037C10.9916 17.533 11.4949 18.5329 11.8234 19.8823C11.8934 20.19 11.9143 21.7422 11.9003 27.9582C11.8864 32.615 11.8514 35.9502 11.8095 36.4187C11.7116 37.4046 11.6067 38.1807 11.5298 38.4464C11.4949 38.5583 11.411 38.8589 11.3481 39.1106C10.9846 40.544 10.4673 41.5998 9.61439 42.6696C9.26486 43.1031 8.51686 43.7394 8.02751 44.0191C7.93663 44.068 7.8108 44.145 7.75488 44.1869C7.64303 44.2708 6.52357 44.7688 6.202 44.8387C5.49594 44.9856 6.42105 44.8912 12.5309 44.8912C18.6617 44.8912 19.578 44.9926 18.8859 44.8387C18.1938 44.6919 17.3391 44.2219 16.7868 43.8443C16.3254 43.5296 15.5635 42.7955 15.1929 42.299C14.8854 41.9005 14.1583 40.4881 13.9766 39.9497C13.8368 39.5162 13.683 38.9428 13.62 38.6212C13.5921 38.4464 13.5292 38.1457 13.4942 37.9569C13.3264 37.1319 13.2705 36.6215 13.2076 35.4048C13.1307 33.9015 13.1237 19.8264 13.2006 19.7845C13.2565 19.7495 13.3754 19.9662 13.662 20.6515C13.7738 20.9032 13.9626 21.3227 14.0814 21.5954C14.2073 21.8611 14.396 22.2876 14.5009 22.5393C14.8364 23.3364 14.8714 23.4064 15.0112 23.728C15.1999 24.1545 15.5774 24.9726 15.899 25.6508C16.7099 27.3919 16.8707 27.7415 17.6117 29.4266C17.8144 29.888 18.15 30.6222 18.3597 31.0557C18.5624 31.4892 18.7302 31.8598 18.7302 31.8738C18.7302 31.8948 18.898 32.2654 19.1007 32.6989C19.5831 33.7057 19.667 33.8875 19.8487 34.356C19.9326 34.5658 20.0864 34.9294 20.1983 35.1601C20.3031 35.3908 20.4639 35.7334 20.5478 35.9292C20.7575 36.4047 21.0092 36.9571 21.2818 37.5374C21.4007 37.8031 21.5545 38.1387 21.6174 38.2716C21.6733 38.4044 21.862 38.817 22.0368 39.1876C22.2116 39.5581 22.3724 39.9287 22.4003 40.0196C22.4283 40.1105 22.5891 40.4811 22.7638 40.8517C22.9386 41.2223 23.1274 41.6348 23.1833 41.7676C23.428 42.313 23.7216 42.9563 24.0082 43.5506C24.169 43.8932 24.3717 44.3477 24.4626 44.5505C24.5639 44.7744 24.7912 44.9142 25.0368 44.9038L25.1524 44.8989C25.4378 44.8867 25.6932 44.7183 25.8168 44.4607L25.8677 44.3547C26.0075 44.068 26.1753 43.7184 26.2312 43.5856C26.2941 43.4527 26.5178 42.9493 26.7345 42.4668C26.9512 41.9844 27.168 41.4949 27.2169 41.3831C27.2728 41.2642 27.4406 40.8726 27.6084 40.5091C27.7692 40.1455 27.9439 39.7469 27.9929 39.635C28.1327 39.3204 28.4403 38.6282 28.622 38.2366C28.7129 38.0408 28.8737 37.6982 28.9716 37.4675C29.2861 36.7613 29.4329 36.4397 29.6776 35.9292C29.8034 35.6565 29.9572 35.2999 30.0271 35.1251C30.2159 34.6147 30.2369 34.5658 30.6423 33.7127C30.859 33.2582 31.0338 32.8737 31.0338 32.8527C31.0338 32.8387 31.1317 32.622 31.2435 32.3842C31.3624 32.1465 31.4532 31.9297 31.4532 31.9018C31.4532 31.8528 32.2362 30.1537 32.362 29.937C32.404 29.8671 32.4319 29.7762 32.4319 29.7342C32.4319 29.6503 33.2568 27.8184 33.907 26.4759C34.1377 26.0004 34.3194 25.5879 34.3194 25.5529C34.3194 25.518 34.3683 25.3991 34.4243 25.2872C34.5711 25.0076 34.9136 24.2244 35.0185 23.9378C35.4379 22.7771 36.1859 21.5115 36.3607 21.6863C36.3956 21.7213 36.4096 25.8815 36.4026 31.4613C36.3817 40.579 36.3747 41.1943 36.2558 41.5579C35.9622 42.4599 35.7385 42.8584 35.2282 43.3758C34.5851 44.0331 33.3629 44.6465 32.5415 44.8912C31.7201 45.136 43.3084 44.8912 43.4134 44.8912C43.9386 44.8913 52.5784 44.865 52.6035 44.8912C52.6286 44.9175 52.5131 44.9991 52.6309 44.3925C52.6751 44.1651 52.7748 43.5297 52.8587 42.9913C52.9356 42.4529 53.0264 41.8236 53.0544 41.5928C53.0894 41.3621 53.1802 40.7608 53.2641 40.2643C53.348 39.7609 53.4459 39.1666 53.4738 38.9358C53.5088 38.7051 53.5997 38.1248 53.6766 37.6423C53.9842 35.7894 54.0471 35.3209 53.9702 35.244C53.8933 35.1671 53.6906 35.3629 53.6836 35.5167C53.6836 35.5517 53.6067 35.7404 53.5158 35.9362C53.4249 36.125 53.2501 36.5096 53.1313 36.7893C52.8517 37.4255 52.5511 37.9849 52.2015 38.4953C52.0547 38.7121 51.9359 38.9149 51.9359 38.9358C51.9359 39.0757 50.9852 40.2643 50.342 40.9426C49.3563 41.9704 47.6576 43.236 47.2591 43.236C47.1892 43.236 47.1123 43.2639 47.0704 43.2989C46.8886 43.4667 46.0428 43.6555 45.4555 43.6555C44.4279 43.6555 43.8966 43.2919 43.61 42.3969C43.4702 41.9494 43.4632 22.2317 43.603 21.4206C43.8057 20.2739 43.9595 19.6726 44.2252 19.0433C44.8404 17.5749 45.4486 16.8478 46.4412 16.3583C46.9096 16.1276 47.7764 16.0017 48.077 16.1136C48.1616 16.1481 48.178 16.2608 48.1067 16.3178L48.091 16.3303C47.3221 16.9457 46.7488 17.7008 46.5531 18.3441C46.4342 18.7426 46.3783 20.2949 46.4762 20.3928C46.5181 20.4347 46.5531 20.5186 46.5531 20.5816C46.5531 20.6445 46.651 20.9032 46.7768 21.1479C47.0634 21.7213 47.9093 22.5813 48.4476 22.833C50.6147 23.8609 53.0125 22.826 53.7465 20.5606C54.1729 19.2321 53.7185 17.6449 52.621 16.617C51.7611 15.8199 50.4049 15.2675 48.7831 15.0648C48.091 14.9739 45.3087 14.9809 44.4908 15.0718Z" fill="url(#paint1_linear_304_52)"/>
</g>
<defs>
<filter id="filter0_i_304_52" x="0" y="0" width="60" height="61" filterUnits="userSpaceOnUse" color-interpolation-filters="sRGB">
<feFlood flood-opacity="0" result="BackgroundImageFix"/>
<feBlend mode="normal" in="SourceGraphic" in2="BackgroundImageFix" result="shape"/>
<feColorMatrix in="SourceAlpha" type="matrix" values="0 0 0 0 0 0 0 0 0 0 0 0 0 0 0 0 0 0 127 0" result="hardAlpha"/>
<feOffset dy="1"/>
<feGaussianBlur stdDeviation="1"/>
<feComposite in2="hardAlpha" operator="arithmetic" k2="-1" k3="1"/>
<feColorMatrix type="matrix" values="0 0 0 0 0.594702 0 0 0 0 0.594702 0 0 0 0 0.594702 0 0 0 0.25 0"/>
<feBlend mode="normal" in2="shape" result="effect1_innerShadow_304_52"/>
</filter>
<filter id="filter1_i_304_52" x="6" y="15" width="48" height="32" filterUnits="userSpaceOnUse" color-interpolation-filters="sRGB">
<feFlood flood-opacity="0" result="BackgroundImageFix"/>
<feBlend mode="normal" in="SourceGraphic" in2="BackgroundImageFix" result="shape"/>
<feColorMatrix in="SourceAlpha" type="matrix" values="0 0 0 0 0 0 0 0 0 0 0 0 0 0 0 0 0 0 127 0" result="hardAlpha"/>
<feOffset dy="2"/>
<feGaussianBlur stdDeviation="1"/>
<feComposite in2="hardAlpha" operator="arithmetic" k2="-1" k3="1"/>
<feColorMatrix type="matrix" values="0 0 0 0 0.557895 0 0 0 0 0.509595 0 0 0 0 0.509595 0 0 0 1 0"/>
<feBlend mode="normal" in2="shape" result="effect1_innerShadow_304_52"/>
</filter>
<linearGradient id="paint0_linear_304_52" x1="4.90661e-07" y1="1.23077" x2="15.2861" y2="63.6059" gradientUnits="userSpaceOnUse">
<stop stop-color="#303030"/>
<stop offset="1" stop-color="#0B0B0B"/>
</linearGradient>
<linearGradient id="paint1_linear_304_52" x1="29.9989" y1="15" x2="28.9973" y2="40.2981" gradientUnits="userSpaceOnUse">
<stop stop-color="white"/>
<stop offset="1" stop-color="#BCB5B5"/>
</linearGradient>
</defs>
</svg>
